<?xml version="1.0" encoding="UTF-8"?>
<svg width="1024px" height="768px" viewBox="0 0 1024 768" version="1.1" xmlns="http://www.w3.org/2000/svg" xmlns:xlink="http://www.w3.org/1999/xlink">
    <!-- Generator: Sketch 48.2 (47327) - http://www.bohemiancoding.com/sketch -->
    <title>dri</title>
    <desc>Created with Sketch.</desc>
    <defs></defs>
    <g id="Page-1" stroke="none" stroke-width="1" fill="none" fill-rule="evenodd">
        <g id="dri">
            <rect id="Rectangle" fill="#FF5597" x="0" y="0" width="1024" height="768"></rect>
            <rect id="Rectangle-2-Copy" fill="#D73B77" x="592" y="360.635175" width="192" height="11" rx="5.5"></rect>
            <circle id="Oval-2" fill="#EA4C89" cx="1024" cy="389" r="261"></circle>
            <circle id="Oval-2-Copy" fill="#C32361" cx="1024" cy="390" r="175"></circle>
            <circle id="Oval-2-Copy-2" fill="#A10E47" cx="1024" cy="390" r="89"></circle>
            <ellipse id="Oval-3" stroke="#FF7681" stroke-width="11" cx="585" cy="389.5" rx="89.5" ry="23"></ellipse>
            <g id="Group-3-Copy" transform="translate(586.000000, 535.500000) scale(1, -1) translate(-586.000000, -535.500000) translate(535.000000, 529.000000)" stroke="#FFFFFF" stroke-width="8">
                <path d="M50.7999878,0.508267088 C50.9034539,3.12258006 51.2397189,4.76087945 51.8087827,5.42316524 C52.6623785,6.41659392 72.0361586,13.0233173 101.399544,12.5600245" id="Path-11-Copy" transform="translate(76.099766, 6.545764) scale(-1, 1) translate(-76.099766, -6.545764) "></path>
                <path d="M0.616656582,0.508267088 C0.72012273,3.12258006 1.05638771,4.76087945 1.62545153,5.42316524 C2.47904725,6.41659392 21.8528274,13.0233173 51.216213,12.5600245" id="Path-11"></path>
            </g>
            <g id="dribbble-icon-1" transform="translate(512.000000, 158.000000)" fill-rule="nonzero">
                <path d="M70,4.6484375 C106.09375,4.6484375 135.296875,33.8515625 135.296875,69.890625 C135.296875,105.929688 106.09375,135.1875 70,135.1875 C33.90625,135.1875 4.703125,105.984375 4.703125,69.9453125 C4.703125,33.90625 33.90625,4.6484375 70,4.6484375 Z" id="Shape" fill="#E74D89"></path>
                <path d="M70,139.835938 C31.390625,139.835938 0,108.5 0,69.9453125 C0,31.3359375 31.390625,0 70,0 C108.609375,0 140,31.3359375 140,69.890625 C140,108.445313 108.609375,139.835938 70,139.835938 Z M129.007812,79.4609375 C126.984375,78.8046875 110.523438,73.9375 91.765625,76.890625 C99.5859375,98.328125 102.757812,115.828125 103.359375,119.4375 C116.8125,110.414062 126.382812,96.0859375 129.007812,79.4609375 Z M93.3515625,124.960938 C92.4765625,119.710938 88.9765625,101.445312 80.609375,79.6796875 C80.5,79.734375 80.3359375,79.7890625 80.2265625,79.7890625 C46.484375,91.546875 34.3984375,114.898437 33.3046875,117.085937 C43.421875,124.960937 56.1640625,129.664062 70,129.664062 C78.2578125,129.71875 86.1875,128.023437 93.3515625,124.960937 Z M25.59375,109.921875 C26.9609375,107.625 43.3671875,80.5 74.2109375,70.4921875 C74.9765625,70.21875 75.796875,70 76.5625,69.78125 C75.0859375,66.390625 73.4453125,63 71.6953125,59.6640625 C41.8359375,68.578125 12.8515625,68.1953125 10.2265625,68.140625 C10.2265625,68.7421875 10.171875,69.34375 10.171875,69.9453125 C10.2265625,85.3125 16.0234375,99.3125 25.59375,109.921875 Z M11.484375,57.75 C14.1640625,57.8046875 38.7734375,57.9140625 66.7734375,50.4765625 C56.875,32.8671875 46.15625,18.1015625 44.625,15.96875 C27.8359375,23.84375 15.3671875,39.265625 11.484375,57.75 Z M56,11.921875 C57.640625,14.109375 68.5234375,28.875 78.3125,46.8671875 C99.5859375,38.8828125 108.554688,26.8515625 109.648438,25.3203125 C99.09375,15.96875 85.203125,10.28125 70,10.28125 C65.1875,10.28125 60.484375,10.8828125 56,11.921875 Z M116.265625,32.2109375 C115.007813,33.90625 105,46.7578125 82.90625,55.78125 C84.2734375,58.625 85.640625,61.5234375 86.8984375,64.421875 C87.3359375,65.4609375 87.7734375,66.5 88.2109375,67.484375 C108.117188,64.96875 127.859375,69.015625 129.828125,69.3984375 C129.664063,55.34375 124.632813,42.3828125 116.265625,32.2109375 Z" id="Shape" fill="#B2215A"></path>
            </g>
            <g id="Group-2" transform="translate(500.000000, 395.000000)" stroke="#FFFFFF">
                <path d="M0.0441633503,0.169598442 C18.2021457,41.4075678 30.1810104,91.1211913 35.9807574,149.310469" id="Path-5" stroke-width="8"></path>
                <path d="M136,0 C154.157982,41.2379694 166.136847,90.9515928 171.936594,149.14087" id="Path-5-Copy" stroke-width="8" transform="translate(153.968297, 74.570435) scale(-1, 1) translate(-153.968297, -74.570435) "></path>
                <path d="M13.1751679,34 C73.2205094,64.5971317 103.24318,104.994915 103.24318,155.19335" id="Path-6" stroke-width="8"></path>
                <path d="M67,35 C127.045341,65.5971317 157.068012,105.994915 157.068012,156.19335" id="Path-6-Copy" stroke-width="9" transform="translate(112.034006, 95.596675) scale(-1, 1) translate(-112.034006, -95.596675) "></path>
                <path d="M50.2281344,16.8354122 C98.1466449,43.2087479 127.006296,83.7809991 136.807087,138.552166" id="Path-7" stroke-width="8"></path>
                <path d="M34.5,16 C82.4185105,42.3733358 111.278161,82.945587 121.078953,137.716754" id="Path-7-Copy" stroke-width="8" transform="translate(77.789476, 76.858377) scale(-1, 1) translate(-77.789476, -76.858377) "></path>
                <path d="M108.5,17.2223166 C132.376908,34.718501 144.867234,52.9509968 145.970979,71.919804" id="Path-8" stroke-width="8"></path>
                <path d="M25,17 C48.8769078,34.4961844 61.3672341,52.7286802 62.4709789,71.6974874" id="Path-8-Copy" stroke-width="8" transform="translate(43.735489, 44.348744) scale(-1, 1) translate(-43.735489, -44.348744) "></path>
                <path d="M66.8290034,65 C37.6096678,95.1318327 23,125.342811 23,155.632934" id="Path-9-Copy" stroke-width="8" transform="translate(44.914502, 110.316467) scale(-1, 1) translate(-44.914502, -110.316467) "></path>
                <path d="M147.110391,65 C117.891055,95.1318327 103.281388,125.342811 103.281388,155.632934" id="Path-9" stroke-width="8"></path>
            </g>
            <path d="M497.091163,393.058105 C514.5984,405.788155 544.009542,412.15318 585.324591,412.15318 C647.401456,410.548936 665.71726,399.738745 672.618206,393.058105" id="Path-10" stroke="#FF7681" stroke-width="11"></path>
            <g id="Group-3" transform="translate(535.000000, 540.000000)" stroke="#FFFFFF" stroke-width="8">
                <path d="M50.7999878,0.508267088 C50.9034539,3.12258006 51.2397189,4.76087945 51.8087827,5.42316524 C52.6623785,6.41659392 72.0361586,13.0233173 101.399544,12.5600245" id="Path-11-Copy" transform="translate(76.099766, 6.545764) scale(-1, 1) translate(-76.099766, -6.545764) "></path>
                <path d="M0.616656582,0.508267088 C0.72012273,3.12258006 1.05638771,4.76087945 1.62545153,5.42316524 C2.47904725,6.41659392 21.8528274,13.0233173 51.216213,12.5600245" id="Path-11"></path>
            </g>
            <rect id="Rectangle-2" fill="#EA4C89" x="583" y="406" width="192" height="13" rx="6.5"></rect>
            <polygon id="Polygon" fill="#CA3770" transform="translate(591.500000, 412.500000) rotate(36.000000) translate(-591.500000, -412.500000) " points="591.5 407 596.730811 410.800407 594.732819 416.949593 588.267181 416.949593 586.269189 410.800407"></polygon>
            <text id="Hello," font-family="STHeitiTC-Light, Heiti TC" font-size="64" font-weight="300" fill="#4C4C4C">
                <tspan x="93" y="289">Hello,</tspan>
            </text>
            <g id="dribbble" transform="translate(93.000000, 303.000000)" fill="#FFFFFF" fill-rule="nonzero">
                <path d="M124.074162,60.7962373 C123.369187,61.9051289 122.805857,62.8568139 122.178851,63.7636755 C120.171783,66.6661523 118.235537,69.6238463 116.081627,72.4126406 C114.920529,73.9145489 113.452101,75.2150768 111.981724,76.4395998 C106.883811,80.6861286 100.831419,78.4787391 97.8692231,74.7824336 C97.0823797,73.801516 96.4345821,72.7114632 95.7659926,71.7337936 C94.3086105,73.0434161 92.9058071,74.4446342 91.3561609,75.6620114 C88.8650316,77.6212482 86.0867141,78.8925435 82.8009444,78.7177972 C79.1155804,78.5229129 76.3197198,76.8274195 74.3360427,73.7605903 C72.3842033,70.7424822 71.6129538,67.3398024 71.2348011,63.8357827 C70.7897245,59.7217752 70.9196739,55.6051693 71.353055,51.4937602 C71.4277759,50.7869798 71.46871,50.0711048 71.4505171,49.3604268 C71.4180297,48.0345639 70.8819886,47.3167401 69.5818452,47.0757332 C67.7904932,46.7450795 65.9757503,46.5365533 64.2188349,46.2806053 C63.2429151,48.8121523 62.3820006,51.2982263 61.3385072,53.7030985 C58.6524538,59.8919742 55.2679225,65.6865339 51.1004464,71.0023279 C50.2265369,72.1170661 49.2148811,73.1506025 48.1408496,74.0756533 C44.4346937,77.2769526 40.1138773,77.6498313 35.9515991,75.0526732 C34.470826,74.1289216 33.190175,72.8842606 31.9517576,71.8935988 C30.4352485,73.602734 28.9759171,75.5450809 27.2209509,77.1671678 C22.5869565,81.4520239 17.2362914,82.0600629 11.6367732,79.4122349 C5.13020849,76.3363111 1.4909765,70.9977806 0.349371323,63.9423195 C-0.464761453,58.9123558 0.111563984,54.0447957 2.42011447,49.469562 C4.39014685,45.5640807 7.19705315,42.4355381 11.6211793,41.4117459 C14.9790709,40.6348072 18.3902418,40.8037069 21.7078491,42.151007 C21.4947321,40.1560415 21.2322344,38.1974543 21.0847419,36.2310717 C20.4583859,27.8393539 20.607178,19.506751 23.2100638,11.3911193 C23.8559121,9.37796452 24.6882378,7.44860998 26.0208685,5.77325464 C28.7147189,2.3874648 32.9829058,1.73395279 36.5311732,4.23691677 C39.5044147,6.33452142 41.1248833,9.38770873 42.1872194,12.7527109 C43.4152409,16.6393534 43.6101649,20.6728087 43.5490887,24.7088625 C43.3392205,38.4787373 40.7402332,51.7704959 35.4649387,64.5178777 C35.3252431,64.8563268 35.340837,65.3909594 35.5182179,65.6988766 C36.0860967,66.68694 36.6890617,67.6750033 37.4187274,68.5448369 C38.2432561,69.528353 38.8163328,69.5380972 39.9475421,68.9333063 C43.997414,66.7648937 46.977153,63.5915277 49.284404,59.6152385 C52.058823,54.8347267 54.5791909,49.9665169 56.257487,44.687751 C56.4413653,44.1076454 56.4160252,43.7536056 55.8923292,43.2865329 C52.7657475,40.4951401 51.1719185,36.9956678 51.6585789,32.7842181 C52.1056047,28.9183633 55.5369177,27.0201903 59.1274187,28.5708196 C62.4710159,30.0149123 64.2071394,32.7972104 65.05246,36.2024887 C65.5391204,38.1636743 65.4897397,38.1818635 67.5331934,38.4800365 C70.1061909,38.8561632 72.703229,39.1095128 75.2502365,39.6142631 C79.4164132,40.4399229 81.2922323,42.6882381 81.2850851,46.9347669 C81.2805368,49.5936383 80.9342218,52.2499113 80.7938765,54.9081331 C80.6203941,58.1925831 80.5014904,61.4815804 81.2785876,64.7153605 C81.4653293,65.4968777 81.7566603,66.2496386 82.1447001,66.9532818 C83.0264066,68.5370416 84.5409664,69.0749222 86.1822269,68.3012316 C87.1172126,67.860793 88.0431018,67.2553525 88.7519756,66.5121937 C90.2249517,64.9687101 91.5653794,63.297902 92.9155533,61.6433344 C93.1156753,61.3984298 93.1533606,60.953444 93.1332185,60.6071995 C92.7394719,53.7998911 93.2183353,47.0426029 94.2910673,40.3229923 C94.7861744,37.224332 95.7711906,36.6994437 98.6736097,37.8732967 C101.709227,39.1010678 102.939198,40.8836095 102.844984,44.1693587 C102.726081,48.2573817 102.467481,52.3428061 102.370669,56.4308291 C102.305045,59.2157257 102.256314,62.0259572 103.045756,64.7374474 C103.326447,65.7001758 103.751381,66.6739477 104.330955,67.4872648 C105.681779,69.3860875 107.955243,69.6141021 109.634189,68.0134524 C110.567225,67.1241304 111.422942,66.1048855 112.111024,65.0174312 C115.76455,59.2306668 119.3583,53.4062248 122.953999,47.5824324 C123.150872,47.264771 123.263278,46.8353759 123.25938,46.4585996 C123.186608,39.1978603 123.49134,31.9566095 124.436071,24.7536859 C125.137148,19.404112 126.032499,14.0811722 128.172116,9.08628768 C128.894634,7.39923929 129.835468,5.73752586 130.986169,4.31552011 C133.3441,1.40264949 136.659759,1.15709528 139.610259,3.49180915 C142.075398,5.44260096 143.178668,8.10212199 143.400882,11.1689512 C143.747847,15.9449157 142.751135,20.5415866 141.441895,25.0804419 C138.892938,33.9210432 135.147148,42.2705361 130.923794,50.4225462 C130.610747,51.0469092 130.456535,51.7388215 130.474818,52.4370002 C130.62621,56.8745156 130.976423,61.2912434 132.604039,65.4851535 C133.084202,66.7213695 133.599451,67.9718771 134.303777,69.0866153 C135.021747,70.2234403 135.881362,71.3264854 136.878723,72.221654 C138.770136,73.9190962 140.859722,73.9788607 142.888881,72.4431725 C143.849933,71.7133251 144.700182,70.8481516 145.413148,69.8745974 C147.240236,67.3709838 148.215506,64.5087831 148.482552,61.4276624 C148.517638,61.0287992 148.240196,60.5266474 147.962105,60.1914464 C147.175911,59.2397614 146.215585,58.4205977 145.499564,57.4234397 C143.127988,54.1195013 141.350281,50.5336302 140.707681,46.4644461 C140.65105,46.0972568 140.621299,45.7264246 140.618666,45.3549049 C140.589427,42.3101625 142.493186,40.8335892 145.372214,41.8827163 C146.63987,42.3445921 147.892582,43.1436177 148.856156,44.091405 C152.331652,47.5031794 154.458923,51.6821484 155.351026,56.4743532 C155.470579,57.1103256 155.445889,57.7313569 156.363981,57.8404921 C157.760287,58.0087422 158.375597,57.8593309 158.825222,56.9154413 C159.155943,56.2216532 159.320979,55.438868 159.704979,54.7801591 C160.452838,53.5023677 161.315701,52.2934354 162.108393,51.0422783 C162.920576,49.7618884 163.723663,48.4769513 164.486466,47.1673288 C164.624862,46.9302196 164.566385,46.5631875 164.562486,46.259168 C164.471522,39.0289606 164.800294,31.8188913 165.739828,24.6458499 C166.416214,19.4814161 167.279078,14.3384195 169.297841,9.50204085 C170.064543,7.66753001 171.058655,5.85445644 172.295123,4.30772474 C174.624466,1.39355489 177.998601,1.17138679 180.917914,3.50155336 C183.373957,5.46403823 184.477876,8.1209608 184.695542,11.1871404 C185.037308,15.9624553 184.039947,20.5591262 182.731357,25.0973319 C180.169405,33.9671658 176.425564,42.3523875 172.151529,50.5115434 C171.955956,50.884422 171.721397,51.3131674 171.733742,51.7094322 C171.894879,56.3925018 172.208707,61.0593311 173.892201,65.5039923 C174.673847,67.5697658 175.591939,69.5660306 177.098052,71.2225472 C177.552564,71.729967 178.061074,72.1863124 178.614561,72.5834892 C180.308451,73.7826772 182.10825,73.8892139 183.807987,72.6854786 C184.804699,71.9806471 185.755279,71.1257546 186.499239,70.1591285 C188.47122,67.5964 189.490673,64.6237649 189.784359,61.4114221 C189.816196,61.064528 189.705739,60.5578288 189.465983,60.3544996 C186.609696,57.9424816 184.850831,54.785356 183.458424,51.418405 C182.80023,49.8326964 182.464961,48.1112184 182.00429,46.4449577 C181.923072,46.1532809 181.925671,45.8323714 181.917874,45.5225054 C181.837955,42.2075235 183.92949,40.7588835 187.048925,41.965867 C188.776601,42.6343201 190.123527,43.8244135 191.278127,45.2204347 C194.111673,48.6503983 196.06806,52.5071586 196.717157,56.9511701 C196.796427,57.4916492 197.029686,57.6904312 197.494255,57.7963184 C199.262216,58.2016777 199.951597,57.7670857 200.467496,56.0046821 C200.61239,55.5103256 200.896329,55.0484498 201.171822,54.6073617 C202.609062,52.2934354 204.078789,49.9957496 205.495887,47.6694807 C205.722649,47.2992005 205.851948,46.804844 205.84805,46.3696024 C205.786324,39.6369996 206.042324,32.9199875 206.842162,26.2322081 C207.525696,20.5363897 208.384012,14.8594102 210.591851,9.52152928 C211.372847,7.6311516 212.422188,5.77260503 213.706088,4.18689647 C215.947065,1.41499216 219.318601,1.21815902 222.128756,3.43139502 C224.626383,5.39777757 225.766688,8.06834204 225.990851,11.1709 C226.337816,15.9468645 225.335906,20.5435355 224.029265,25.0823907 C221.482258,33.9242913 217.735168,42.2718353 213.511164,50.4225462 C213.195183,51.0463428 213.038487,51.7386139 213.055041,52.4376498 C213.218778,56.9050475 213.604727,61.3445118 215.209602,65.5786979 C215.972405,67.5860062 216.880751,69.5166599 218.316042,71.1432942 C218.744364,71.6325028 219.220866,72.0773503 219.738337,72.4711059 C221.498502,73.7969687 223.361326,73.9106512 225.166322,72.6471514 C226.140293,71.9644067 227.059685,71.1179593 227.781553,70.1747193 C229.747687,67.6087427 230.779485,64.6426037 231.070572,61.4296113 C231.103059,61.0788195 231.006247,60.5656242 230.76844,60.3648934 C227.864721,57.9087016 226.12275,54.6827169 224.670566,51.2676944 C223.807052,49.2350512 223.141061,47.1374466 223.213833,44.8884818 C223.269711,43.1293262 224.106585,41.9074017 225.498343,41.6969266 C226.215663,41.588441 226.992761,41.630666 227.704883,41.7852742 C229.234387,42.1172271 230.470206,43.0312344 231.535791,44.1316811 C234.946961,47.6506419 237.152852,51.8159689 237.945543,56.663391 C238.090437,57.544268 238.46599,57.8326968 239.232042,57.8489371 C240.15988,57.8677759 241.122155,58.0197857 242.00711,57.8236022 C242.833588,57.6404109 243.645122,57.1674917 244.324757,56.6452018 C244.634687,56.4067933 244.812067,55.694816 244.715255,55.2758148 C241.537343,41.5163338 242.276106,27.8387043 245.511195,14.2136935 C246.285693,10.9500312 247.451989,7.81629169 249.242041,4.9501933 C249.60367,4.37246876 250.000777,3.81771661 250.431078,3.28912948 C253.693457,-0.706648213 258.369035,-1.09576719 262.270115,2.30821185 C264.888595,4.59420465 266.290748,7.61426163 267.275765,10.8519394 C268.781228,15.796154 269.120396,20.8871815 269.045025,26.0191346 C268.964457,31.462253 268.469999,36.84041 266.553896,42.0022454 C264.672229,47.0718355 261.607373,51.4086607 258.262477,55.5798343 C257.701095,56.2807681 257.09943,56.9537686 256.576384,57.6832855 C256.415896,57.908052 256.317784,58.3471913 256.427592,58.5680602 C257.603633,60.8839352 258.793969,63.1965622 260.057727,65.4643658 C260.457971,66.1834889 261.047941,66.8116659 261.622967,67.4151576 C262.534562,68.374638 263.657325,68.8384626 265.020493,68.8683449 C268.705208,68.9482474 271.968236,67.8984707 274.830371,65.5488157 C275.439833,65.047963 275.575631,64.6036268 275.437884,63.8299362 C273.744644,54.4144262 276.255266,46.2630657 283.111394,39.590877 C286.439398,36.3512504 290.549046,34.7655418 295.269457,34.9292446 C302.512835,35.181295 307.879743,41.5845434 306.816108,48.7660297 C305.890219,55.004276 302.367291,59.6087423 297.509784,63.3303828 C294.925741,65.3084584 292.021373,66.6778454 288.699217,67.6015969 C289.069573,67.886128 289.327522,68.1173907 289.61601,68.2960346 C292.950511,70.3475167 296.631326,70.8002978 300.437543,70.5664367 C307.137733,70.1519828 312.103098,66.6518608 316.17831,61.6121529 C316.859894,60.7696031 317.470656,59.8711865 318.131449,59.0110971 C318.903348,58.0048446 319.569988,57.9074024 320.433502,58.831154 C321.956508,60.4577882 322.924631,62.3741505 322.997403,64.6490998 C323.035088,65.8002164 322.661484,66.8402489 321.95261,67.7568548 C315.201091,76.4727301 306.308006,80.4035464 295.333782,79.6298557 C290.404153,79.2829617 285.857874,77.8141837 281.944449,74.6966845 C281.123819,74.0431725 280.390255,73.2837734 279.804183,72.7445935 C277.1935,74.1672489 274.723812,75.7159294 272.088439,76.9001763 C268.829309,78.3650566 265.360961,79.0809316 261.759414,78.4033839 C257.812202,77.6589259 254.742148,75.423603 252.408907,72.2853162 C250.812479,70.136392 249.576011,67.7237244 248.187502,65.4221409 C248.012071,65.1343617 247.899015,64.8102042 247.728781,64.4392744 C244.741245,65.3201514 241.741364,65.2870211 238.816204,64.6958721 C238.249625,66.6862904 237.770761,68.6325349 237.139857,70.5261606 C236.15549,73.4864531 234.61624,76.1329818 232.145903,78.1071597 C228.064843,81.3701725 223.630321,81.4760596 219.0652,79.2862097 C215.457805,77.5562868 212.859468,74.6986334 210.794572,71.3427258 C209.000621,68.4246583 207.600417,65.3311949 206.968863,61.9343616 C206.947421,61.8180806 206.879198,61.7115439 206.750548,61.4016778 C204.506972,65.1376098 201.238746,65.7508457 197.534539,64.6445525 C196.952366,66.6882392 196.455309,68.6266883 195.842598,70.5287591 C195.09279,72.8504806 193.925195,74.9617272 192.263143,76.767655 C188.714876,80.6250648 183.92949,81.7378542 179.037546,79.8539726 C175.725137,78.5774805 173.165134,76.3311142 171.026818,73.5605091 C168.414186,70.17342 167.051017,67.113087 165.414954,60.9540936 C163.376049,65.0752468 160.095477,65.8275002 156.287961,64.6549464 C155.562843,67.0227906 154.976122,69.2938422 154.157441,71.4784952 C153.642841,72.8524295 152.899531,74.1802412 152.05421,75.386575 C148.318166,80.7062666 142.293713,82.1919346 136.462885,79.2972532 C133.238842,77.6966035 130.802291,75.2215729 128.80302,72.2794697 C126.718632,69.2048451 125.844723,67.0864528 124.074162,60.7962373 Z M15.9212038,72.7809719 C18.7683944,72.8485318 21.2972091,72.0488566 23.0378808,69.7687103 C24.5108569,67.8374069 25.678452,65.672892 26.9441588,63.5889293 C27.0676107,63.3856 26.9798949,63.004926 26.8993262,62.732088 C25.8043767,59.0264454 24.6969852,55.3244891 23.5771707,51.6262815 C23.4654143,51.2585998 23.3114243,50.8467443 23.0469773,50.5868986 C20.0367002,47.6344015 14.7789489,47.193963 11.6088341,50.6005405 C10.549097,51.7386648 9.56927883,53.0528346 8.92343048,54.4579504 C6.69479885,59.3047228 7.04306315,64.2171063 9.01829351,69.0606307 C9.73756325,70.8243336 11.1091788,71.9812967 12.9836984,72.4074437 C13.9414252,72.6263637 14.9407359,72.6633917 15.9212038,72.7809719 Z M30.9251576,52.4305041 C31.0440613,52.4246575 31.1616654,52.4181614 31.2792696,52.4136141 C31.9757982,49.4650147 32.7424995,46.5313564 33.354561,43.565867 C35.0185626,35.5061021 36.1146855,27.3800766 35.8625838,19.1234786 C35.7839644,16.549057 35.5422586,13.9850293 34.5539936,11.5645663 C33.9913129,10.1847855 33.3181752,10.0762999 32.3117173,11.1806443 C31.1545182,12.4519395 30.5651979,14.0168604 30.1064766,15.6344 C28.9720186,19.6366739 28.745257,23.7532798 28.6750843,27.8763819 C28.5724243,33.8677748 29.0188004,39.8318839 29.7868012,45.7687092 C30.0765882,48.000784 30.5405075,50.2107719 30.9251576,52.4305041 Z M252.859832,48.063147 C254.281478,46.5099191 255.282088,44.8540522 256.115713,43.0994439 C259.450214,36.0894558 260.609362,28.666313 260.161687,20.9709817 C260.012895,18.406954 259.655534,15.8526705 258.589949,13.4685859 C258.249482,12.7046395 257.872628,11.7867344 256.929196,11.7730925 C255.981865,11.7594506 255.643347,12.7247775 255.423733,13.4568928 C254.731103,15.7610748 254.009234,18.0724026 253.561558,20.4311522 C252.423202,26.4063047 252.085983,32.4691552 251.886511,38.5378522 C251.779952,41.7001747 252.123669,44.8163746 252.859832,48.063147 Z M284.709122,60.1258353 L285.067782,60.2447147 C285.527803,60.0686693 285.993671,59.9062657 286.445245,59.7126806 C290.624417,57.9106505 294.13175,55.3056971 296.140767,51.1072397 C296.695651,49.949627 296.999733,48.571795 297.027672,47.2862083 C297.075103,45.0937599 295.249965,43.8114212 293.113597,44.3207189 C291.490529,44.707889 290.200132,45.6459321 289.092314,46.8516163 C286.959845,49.1720386 285.707133,51.9439429 285.180188,55.0146698 C284.889102,56.6945725 284.857264,58.4199481 284.709122,60.1258353 Z M136.215981,10.6479605 C133.510436,12.8430073 130.11161,30.4715912 130.800342,33.6248191 C133.353197,29.7232355 136.851434,14.9841361 136.215981,10.6479605 Z M177.582113,10.7921749 C175.172852,12.7877901 171.458899,30.3988343 172.139184,33.8664756 C175.241725,26.3134099 177.127291,18.7272138 177.582113,10.7921749 Z M213.324686,33.5696019 C216.402537,26.2679369 218.366722,18.69993 218.969687,10.8090649 L218.492773,10.6953824 C215.275876,17.9600193 213.806149,25.6449567 213.324686,33.5696019 Z" id="Shape"></path>
                <path d="M92.0000031,25.5637451 C92.0026936,22.0162649 94.6386619,19.3370536 98.4369046,19.021778 C101.886734,18.7355079 105.234999,21.3056339 105.855148,24.7181761 C106.176657,26.4875023 105.975545,28.1988179 105.125363,29.8149202 C103.902554,32.1403924 101.407834,33.3283506 98.6729916,32.9210146 C94.7267741,32.3339716 91.99664,29.3237209 92.0000031,25.5637451 Z" id="Shape"></path>
            </g>
        </g>
    </g>
</svg>